<?xml version="1.0" encoding="UTF-8" standalone="no"?>
<!-- Created with Inkscape (http://www.inkscape.org/) -->

<svg
   xmlns:dc="http://purl.org/dc/elements/1.1/"
   xmlns:cc="http://creativecommons.org/ns#"
   xmlns:rdf="http://www.w3.org/1999/02/22-rdf-syntax-ns#"
   xmlns:svg="http://www.w3.org/2000/svg"
   xmlns="http://www.w3.org/2000/svg"
   xmlns:sodipodi="http://sodipodi.sourceforge.net/DTD/sodipodi-0.dtd"
   xmlns:inkscape="http://www.inkscape.org/namespaces/inkscape"
   width="744.09448819"
   height="1052.3622047"
   id="svg4584"
   version="1.1"
   inkscape:version="0.48.4 r9939"
   sodipodi:docname="chart3.eps">
  <defs
     id="defs4586">
    <clipPath
       clipPathUnits="userSpaceOnUse"
       id="clipPath4414">
      <path
         inkscape:connector-curvature="0"
         d="m 316.8,257.58 263,0 0,146.111 -263,0 0,-146.111 z"
         id="path4416" />
    </clipPath>
    <clipPath
       clipPathUnits="userSpaceOnUse"
       id="clipPath4394">
      <path
         inkscape:connector-curvature="0"
         d="m 316.8,257.58 263,0 0,146.111 -263,0 0,-146.111 z"
         id="path4396" />
    </clipPath>
    <clipPath
       clipPathUnits="userSpaceOnUse"
       id="clipPath4382">
      <path
         inkscape:connector-curvature="0"
         d="m 349.675,272.191 203.825,0 0,116.889 -203.825,0 0,-116.889 z"
         id="path4384" />
    </clipPath>
    <clipPath
       clipPathUnits="userSpaceOnUse"
       id="clipPath4370">
      <path
         inkscape:connector-curvature="0"
         d="m 316.8,257.58 263,0 0,146.111 -263,0 0,-146.111 z"
         id="path4372" />
    </clipPath>
    <clipPath
       clipPathUnits="userSpaceOnUse"
       id="clipPath4358">
      <path
         inkscape:connector-curvature="0"
         d="m 349.675,272.191 203.825,0 0,116.889 -203.825,0 0,-116.889 z"
         id="path4360" />
    </clipPath>
    <clipPath
       clipPathUnits="userSpaceOnUse"
       id="clipPath4346">
      <path
         inkscape:connector-curvature="0"
         d="m 316.8,257.58 263,0 0,146.111 -263,0 0,-146.111 z"
         id="path4348" />
    </clipPath>
    <clipPath
       clipPathUnits="userSpaceOnUse"
       id="clipPath4334">
      <path
         inkscape:connector-curvature="0"
         d="m 349.675,272.191 203.825,0 0,116.889 -203.825,0 0,-116.889 z"
         id="path4336" />
    </clipPath>
    <clipPath
       clipPathUnits="userSpaceOnUse"
       id="clipPath4318">
      <path
         inkscape:connector-curvature="0"
         d="m 316.8,257.58 263,0 0,146.111 -263,0 0,-146.111 z"
         id="path4320" />
    </clipPath>
    <clipPath
       clipPathUnits="userSpaceOnUse"
       id="clipPath4302">
      <path
         inkscape:connector-curvature="0"
         d="m 316.8,257.58 263,0 0,146.111 -263,0 0,-146.111 z"
         id="path4304" />
    </clipPath>
    <clipPath
       clipPathUnits="userSpaceOnUse"
       id="clipPath4286">
      <path
         inkscape:connector-curvature="0"
         d="m 316.8,257.58 263,0 0,146.111 -263,0 0,-146.111 z"
         id="path4288" />
    </clipPath>
    <clipPath
       clipPathUnits="userSpaceOnUse"
       id="clipPath4270">
      <path
         inkscape:connector-curvature="0"
         d="m 316.8,257.58 263,0 0,146.111 -263,0 0,-146.111 z"
         id="path4272" />
    </clipPath>
    <clipPath
       clipPathUnits="userSpaceOnUse"
       id="clipPath4254">
      <path
         inkscape:connector-curvature="0"
         d="m 316.8,257.58 263,0 0,146.111 -263,0 0,-146.111 z"
         id="path4256" />
    </clipPath>
    <clipPath
       clipPathUnits="userSpaceOnUse"
       id="clipPath4236">
      <path
         inkscape:connector-curvature="0"
         d="m 349.675,272.191 203.825,0 0,116.889 -203.825,0 0,-116.889 z"
         id="path4238" />
    </clipPath>
  </defs>
  <sodipodi:namedview
     id="base"
     pagecolor="#ffffff"
     bordercolor="#666666"
     borderopacity="1.0"
     inkscape:pageopacity="0.0"
     inkscape:pageshadow="2"
     inkscape:zoom="3.959798"
     inkscape:cx="383.5274"
     inkscape:cy="517.66713"
     inkscape:document-units="px"
     inkscape:current-layer="g4410"
     showgrid="false"
     inkscape:window-width="1855"
     inkscape:window-height="1176"
     inkscape:window-x="65"
     inkscape:window-y="24"
     inkscape:window-maximized="1" />
  <metadata
     id="metadata4589">
    <rdf:RDF>
      <cc:Work
         rdf:about="">
        <dc:format>image/svg+xml</dc:format>
        <dc:type
           rdf:resource="http://purl.org/dc/dcmitype/StillImage" />
        <dc:title></dc:title>
      </cc:Work>
    </rdf:RDF>
  </metadata>
  <g
     inkscape:label="Layer 1"
     inkscape:groupmode="layer"
     id="layer1">
    <path
       inkscape:connector-curvature="0"
       d="m 510.61524,598.98509 -254.78125,0 0,-146.11125 254.78125,0 0,146.11125 z m -254.78125,0 z"
       style="fill:#ffffff;fill-opacity:1;fill-rule:nonzero;stroke:#000000;stroke-width:0.50749999;stroke-linecap:square;stroke-linejoin:miter;stroke-miterlimit:10;stroke-opacity:1;stroke-dasharray:none"
       id="path4230" />
    <g
       transform="matrix(1.25,0,0,-1.25,-181.25976,939.22384)"
       id="g4232">
      <g
         id="g4234"
         clip-path="url(#clipPath4236)">
        <path
           inkscape:connector-curvature="0"
           d="m 349.675,345.66 0.142,-1.199 0.141,-1.119 0.142,-0.83 0.142,-0.766 0.141,-0.894 0.142,-1.115 0.142,-0.53 0.141,-0.781 0.142,-0.747 0.141,-0.515 0.142,-0.501 0.142,-0.462 0.141,-0.555 0.142,-0.496 0.142,-0.545 0.141,-0.53 0.142,-0.295 0.142,-0.339 0.141,-0.486 0.142,-0.501 0.142,-0.633 0.141,-0.629 0.142,-0.54 0.142,-0.575 0.141,-0.55 0.142,-0.673 0.141,-0.756 0.142,-0.928 0.142,-1.09 0.141,-1.233 0.142,-0.967 0.142,-0.884 0.141,-0.791 0.142,-0.732 0.142,-0.589 0.141,-0.531 0.142,-0.584 0.142,-0.515 0.141,-0.487 0.142,-0.348 0.142,-0.418 0.141,-0.599 0.142,-0.516 0.141,-0.56 0.142,-0.363 0.142,-0.59 0.141,-0.584 0.142,-0.545 0.142,-0.579 0.141,-0.54 0.142,-0.58 0.142,-0.889 0.141,-0.83 0.142,-0.663 0.142,-0.796 0.141,-0.638 0.142,-0.81 0.142,-0.619 0.141,-0.668 0.142,-0.692 0.141,-0.619 0.142,-0.668 0.142,-0.776 0.141,-0.511 0.142,-0.373 0.141,-0.521 0.142,-0.329 0.142,-0.304 0.141,-0.236 0.142,-0.28 0.142,-0.363 0.141,-0.334 0.142,-0.393 0.141,-0.31 0.142,-0.368 0.142,-0.383 0.141,-0.255 0.142,-0.172 0.142,-0.211 0.141,-0.31 0.142,-0.373 0.142,-0.403 0.141,-0.314 0.142,-0.206 0.142,-0.29 0.141,-0.324 0.142,-0.157 0.142,-0.339 0.141,-0.182 0.142,-0.231 0.141,-0.358 0.142,-0.098 0.142,-0.241 0.141,-0.182 0.142,-0.299 0.142,-0.034 0.141,-0.153 0.142,-0.059 0.142,-0.24 0.141,-0.104 0.142,-0.166 0.142,-0.202 0.141,-0.294 0.142,-0.128 0.142,-0.295 0.141,-0.255 0.142,-0.285 0.141,-0.236 0.142,-0.157 0.142,-0.176 0.141,-0.168 0.142,-0.245 0.142,-0.314 0.141,-0.226 0.142,-0.236 0.142,-0.305 0.141,-0.206 0.142,-0.29 0.142,-0.27 0.141,-0.172 0.142,-0.181 0.142,-0.324 0.141,-0.217 0.142,-0.206 0.141,-0.167 0.142,-0.231 0.142,-0.245 0.141,-0.157 0.142,-0.064 0.142,-0.187 0.141,-0.177 0.142,-0.103 0.142,-0.191 0.141,-0.172 0.142,-0.054 0.142,-0.094 0.141,-0.152 0.142,-0.176 0.141,-0.054 0.142,-0.089 0.142,-0.113 0.141,-0.118 0.142,-0.122 0.142,-0.099 0.141,-0.083 0.142,-0.128 0.142,-0.147 0.141,-0.172 0.284,-0.295 0.141,-0.211 0.142,-0.27 0.142,-0.172 0.141,-0.24 0.142,-0.222 0.141,-0.22 0.142,-0.182 0.142,-0.079 0.141,-0.181 0.142,-0.163 0.142,-0.201 0.141,-0.138 0.142,-0.083 0.142,-0.069 0.141,-0.122 0.142,-0.138 0.142,-0.236 0.141,-0.122 0.142,-0.163 0.142,-0.122 0.141,-0.123 0.142,-0.241 0.141,-0.186 0.142,-0.182 0.142,-0.118 0.141,-0.088 0.142,-0.167 0.142,-0.094 0.141,-0.162 0.142,-0.142 0.283,-0.305 0.142,-0.137 0.142,-0.148 0.141,-0.117 0.142,-0.049 0.142,-0.114 0.141,-0.112 0.142,-0.054 0.141,-0.069 0.142,-0.079 0.142,-0.147 0.141,-0.098 0.142,-0.049 0.142,-0.123 0.141,-0.103 0.142,-0.03 0.141,-0.049 0.142,-0.02 0.142,-0.103 0.141,-0.088 0.142,-0.054 0.141,-0.108 0.142,-0.034 0.142,-0.044 0.141,-0.04 0.142,-0.083 0.142,-0.05 0.141,-0.166 0.142,-0.133 0.142,-0.044 0.141,-0.108 0.142,-0.074 0.142,-0.069 0.141,-0.009 0.142,-0.02 0.142,-0.005 0.141,-0.049 0.142,-0.03 0.141,-0.024 0.142,-0.059 0.142,-0.025 0.141,-0.054 0.142,-0.039 0.142,-0.064 0.141,-0.015 0.142,-0.063 0.142,-0.045 0.141,-0.058 0.142,-0.025 0.142,0 0.141,-0.025 0.142,-0.034 0.142,-0.049 0.141,-0.025 0.142,0 0.141,0.044 0.142,-0.014 0.142,-0.005 0.141,-0.03 0.142,-0.024 0.142,-0.108 0.141,-0.03 0.142,-0.044 0.283,-0.079 0.142,-0.039 0.142,-0.01 0.141,-0.019 0.142,-0.025 0.142,-0.074 0.141,0 0.142,-0.009 0.141,0.005 0.142,0.034 0.142,0.024 0.141,-0.019 0.142,-0.039 0.142,-0.059 0.141,-0.049 0.142,-0.005 0.142,-0.025 0.141,0.015 0.142,-0.069 0.142,-0.039 0.141,0.064 0.142,-0.104 0.141,-0.019 0.142,-0.005 0.142,-0.044 0.141,-0.069 0.142,-0.054 0.142,-0.044 0.141,-0.005 0.142,-0.03 0.283,-0.088 0.142,0 0.142,0.01 0.141,-0.005 0.142,-0.015 0.142,0.04 0.141,0 0.142,-0.05 0.141,0 0.142,-0.029 0.142,-0.01 0.141,0.024 0.142,0.035 0.142,-0.024 0.141,-0.011 0.142,-0.014 0.142,0.02 0.141,-0.006 0.142,-0.009 0.142,-0.034 0.141,-0.035 0.142,-0.01 0.142,0.015 0.141,-0.025 0.283,-0.019 0.142,0.019 0.142,-0.01 0.141,-0.024 0.142,0.005 0.142,0 0.141,-0.039 0.142,-0.064 0.142,-0.049 0.141,-0.044 0.142,-0.02 0.142,-0.039 0.141,0.009 0.142,0.025 0.142,0.015 0.141,0 0.142,-0.02 0.141,-0.01 0.142,0.049 0.142,-0.014 0.141,0.019 0.142,0.025 0.142,0.005 0.141,-0.005 0.142,0.015 0.142,0.004 0.141,-0.024 0.142,-0.049 0.141,-0.02 0.142,-0.015 0.141,0.01 0.142,-0.014 0.142,-0.01 0.141,-0.005 0.142,0 0.142,-0.005 0.141,0.01 0.142,-0.035 0.142,0 0.141,0.02 0.284,-0.02 0.141,-0.02 0.142,0.02 0.142,0.035 0.141,0.054 0.142,-0.04 0.141,0.005 0.142,-0.019 0.142,-0.025 0.141,-0.034 0.142,0.015 0.142,-0.005 0.141,-0.049 0.142,-0.035 0.142,0.01 0.141,-0.024 0.142,-0.045 0.142,-0.049 0.141,-0.064 0.142,-0.019 0.142,-0.025 0.141,-0.025 0.142,0.005 0.141,-0.034 0.142,-0.01 0.142,-0.015 0.141,0.045 0.142,0.005 0.283,0.029 0.142,-0.01 0.283,-0.029 0.142,0.019 0.142,-0.019 0.141,-0.035 0.142,-0.014 0.142,0.039 0.141,0.02 0.142,0.049 0.141,0.014 0.142,-0.029 0.142,0.02 0.141,0 0.142,0.004 0.142,-0.029 0.141,0.059 0.142,0.015 0.567,0 0.141,0.009 0.142,0.025 0.142,0.039 0.141,0 0.142,0.01 0.141,0.039 0.142,0.074 0.142,0.054 0.141,0.044 0.142,0.049 0.142,0.108 0.141,0.049 0.142,-0.004 0.142,0.073 0.141,0.079 0.142,0.029 0.142,0.064 0.141,0.049 0.142,0.005 0.141,0.064 0.142,0.039 0.142,0.079 0.141,-0.02 0.142,0.02 0.142,0.093 0.141,0.03 0.142,0.083 0.142,0.064 0.141,0.059 0.142,0.049 0.142,0.025 0.141,0.073 0.142,0.039 0.142,0.045 0.141,0.069 0.142,0.034 0.141,0.078 0.142,0.035 0.142,0.127 0.141,0.06 0.284,0.137 0.141,0.049 0.142,0.079 0.142,0.005 0.141,0.078 0.142,0.094 0.142,0.044 0.141,0.118 0.142,0.039 0.142,0.088 0.141,0.03 0.142,0.034 0.141,0.044 0.142,-0.039 0.142,0.054 0.141,-0.044 0.142,0.01 0.142,0.024 0.141,0.054 0.142,0.069 0.142,0.093 0.141,0.162 0.142,0.074 0.141,0.108 0.142,0.079 0.141,0.059 0.142,0.108 0.142,0.127 0.141,0.069 0.142,0.098 0.142,0.074 0.141,0.118 0.142,0.221 0.142,0.157 0.141,0.147 0.142,0.187 0.142,0.113 0.141,0.147 0.142,0.157 0.142,0.152 0.141,0.241 0.142,0.147 0.141,0.119 0.142,0.098 0.142,0.147 0.141,0.123 0.142,0.074 0.142,0.078 0.141,0.03 0.142,0.088 0.142,0.093 0.141,0.098 0.142,0.158 0.142,0.044 0.141,-0.02 0.142,-0.015 0.142,0.094 0.141,-0.035 0.142,0.138 0.141,-0.015 0.142,0.059 0.142,0.039 0.141,0.054 0.142,0.025 0.142,0.162 0.141,0.078 0.142,0.158 0.142,0.068 0.141,0.03 0.142,-0.064 0.142,0.03 0.141,0.054 0.142,-0.025 0.142,0.157 0.141,0.108 0.142,0.03 0.141,0.152 0.142,0.098 0.142,0.162 0.141,0.113 0.142,0.029 0.142,0.148 0.141,0.034 0.142,0.182 0.142,0.118 0.141,0.088 0.142,0.079 0.142,0.122 0.141,0.143 0.142,0.118 0.142,0.177 0.141,0.112 0.142,0.055 0.141,0.157 0.284,0.196 0.141,0.074 0.142,0.231 0.283,0.294 0.142,0.099 0.142,0.093 0.141,0.123 0.142,-0.039 0.142,0.181 0.141,0.054 0.142,0.039 0.141,0.172 0.142,0.108 0.142,0.089 0.141,0.122 0.142,0.261 0.142,0.201 0.141,0.28 0.142,0.133 0.142,0.108 0.141,0.142 0.142,0.123 0.142,0.078 0.141,0.163 0.142,0.162 0.142,0.073 0.141,0 0.142,0.197 0.142,0.137 0.141,0.172 0.142,0.202 0.141,0.186 0.142,0.005 0.142,0.167 0.141,0.172 0.142,0.118 0.142,-0.005 0.141,0 0.142,0.083 0.142,-0.044 0.283,0.118 0.142,0.172 0.141,0.167 0.142,0.019 0.142,0.045 0.141,0.083 0.142,0.211 0.141,0.084 0.142,0.171 0.142,0.089 0.141,0.054 0.142,0.039 0.142,0.03 0.141,0.093 0.142,0.02 0.142,0.049 0.141,0.014 0.142,0.143 0.141,0.152 0.142,0.074 0.283,0.275 0.142,0.108 0.141,0.093 0.142,0.039 0.142,0.153 0.141,0.324 0.142,0.069 0.142,0.015 0.141,-0.015 0.142,0.078 0.142,0.133 0.141,-0.01 0.142,0.143 0.141,0.009 0.142,0.123 0.142,0.147 0.141,0.064 0.142,0.079 0.142,-0.005 0.141,-0.054 0.142,0.005 0.142,0.034 0.141,0.128 0.142,0.054 0.142,0.137 0.141,0.103 0.142,0.089 0.142,-0.01 0.141,0.138 0.142,-0.03 0.141,0.172 0.142,0.197 0.142,0.117 0.141,0.064 0.142,0.02 0.142,0.024 0.141,0.074 0.142,0.025 0.142,-0.02 0.141,0 0.142,0.039 0.142,0.01 0.141,-0.054 0.142,-0.064 0.142,-0.054 0.141,-0.088 0.142,0.083 0.141,0.069 0.142,0.054 0.142,0.083 0.141,0.099 0.142,0.196 0.142,0.147 0.141,0.109 0.142,0.26 0.142,0.034 0.141,0.138 0.142,0.191 0.142,0.064 0.141,0.152 0.142,-0.029 0.142,0.005 0.141,0.118 0.142,0.039 0.141,-0.02 0.142,0.089 0.142,0.098 0.141,-0.074 0.142,-0.069 0.142,0.069 0.141,0.098 0.142,0.045 0.142,-0.005 0.141,0.162 0.142,0.147 0.142,0.118 0.141,0.177 0.142,0.093 0.141,0.049 0.142,0.01 0.142,0.108 0.141,0.143 0.142,0.132 0.142,0.153 0.141,0.171 0.142,0.074 0.142,0.147 0.141,0.064 0.142,0.098 0.142,0.118 0.141,0.152 0.142,0.197 0.142,0.064 0.141,0.122 0.142,0.103 0.142,0.04 0.141,0.025 0.142,0.063 0.141,0.01 0.142,0.025 0.142,0.108 0.141,0.142 0.142,0.182 0.142,0.069 0.141,0.078 0.142,0.03 0.142,0.127 0.141,0.064 0.142,0.079 0.142,0.167 0.141,0.078 0.142,0.025 0.141,0.201 0.142,0.064 0.142,0.098 0.141,0.113 0.142,-0.024 0.142,0.113 0.141,0.059 0.142,0.019 0.142,-0.01 0.141,0.045 0.142,0.132 0.142,0.069 0.141,0.123 0.142,0.181 0.141,0.241 0.142,0.231 0.141,0.005 0.142,0.039 0.142,0.29 0.141,0.177 0.142,0.039 0.142,0.088 0.141,0.167 0.142,0.074 0.142,0.177 0.141,0.201 0.142,0.118 0.142,0.113 0.283,0.275 0.141,0.285 0.142,0.235 0.142,0.266 0.141,0.25 0.142,0.211 0.142,0.025 0.141,0.083 0.142,0.138 0.142,0.275 0.141,0.216 0.142,0.074 0.142,0.157 0.141,0.142 0.142,0.202 0.142,0.162 0.141,0.255 0.142,0.206 0.141,0.113 0.142,0.152 0.142,0.227 0.141,0.294 0.142,0.182 0.142,0.211 0.141,0.162 0.142,0.187 0.142,0.201 0.141,0.226 0.142,0.132 0.142,0.148 0.141,0.182 0.142,0.152 0.142,0.226 0.141,0.157 0.142,0.187 0.141,0.063 0.142,0.123 0.142,-0.083 0.141,0.216 0.142,0.004 0.142,0.162 0.141,0.148 0.142,-0.088 0.142,0.112 0.141,0.015 0.142,0.201 0.142,0.06 0.141,0.191 0.142,0.236 0.142,0.147 0.141,0.261 0.142,0.274 0.141,0.192 0.142,0.314 0.142,0.241 0.141,0.147 0.284,0.589 0.141,0.511 0.142,0.324 0.142,0.369 0.141,0.397 0.142,0.344 0.142,0.354 0.141,0.305 0.142,0.372 0.142,0.506 0.141,0.437 0.142,0.462 0.141,0.422 0.142,0.374 0.142,0.466 0.141,0.285 0.142,0.442 0.142,0.211 0.141,0.324 0.142,0.482 0.142,0.427 0.141,0.471 0.142,0.354 0.142,0.476 0.141,0.565 0.142,0.359 0.141,0.25 0.142,0.315 0.142,0.446 0.141,0.339 0.142,0.359 0.142,0.393 0.141,0.402 0.142,0.423 0.142,0.446 0.141,0.457 0.142,0.236 0.142,0.653 0.141,0.521 0.142,0.294 0.142,0.58 0.141,0.407 0.142,0.339 0.142,0.31 0.141,0.294 0.142,0.506 0.141,0.683 0.142,0.845 0.142,0.265 0.141,-0.261 0.142,0.192 0.142,0.241 0.141,0.339 0.142,0.358 0.142,0.295 0.141,0.299 0.142,0.462 0.142,0.339 0.141,0.427 0.141,0.54 0.142,0.457 0.142,0.403 0.141,0.432 0.142,0.569 0.142,0.526 0.141,0.447 0.142,0.417 0.142,0.31 0.141,0.142 0.142,0.246 0.142,0.319 0.141,0.368 0.142,0.31 0.141,0.481 0.142,0.349 0.142,0.373 0.141,0.118 0.142,0.166 0.142,0.315 0.141,0.206 0.142,0.182 0.142,0.437 0.141,0.236 0.142,0.299 0.142,0.29 0.141,0.393 0.142,0.172 0.142,0.451 0.141,0.374 0.142,0.378 0.141,0.314 0.142,0.143 0.142,0.432 0.141,0.334 0.142,-0.059 0.142,-0.02 0.141,0.049 0.142,0.153 0.142,0.166 0.141,0.099 0.142,0.123 0.142,0.127 0.141,0.152 0.142,0.295 0.142,0.192 0.141,0.392 0.142,0.619 0.141,-0.059 0.142,-0.623 0.142,-0.403 0.141,-0.133 0.142,0.118 0.142,0.108 0.141,0.241 0.142,0.206 0.142,0.216 0.141,0.324 0.142,0.349 0.142,0.329 0.141,0.368 0.142,0.192 0.142,0.339 0.141,0.216 0.142,0.172 0.141,0.172 0.142,0.319 0.142,0.241 0.141,-0.3 0.142,0.064 0.142,-0.025 0.141,-0.083 0.142,0.088 0.142,0.123 0.141,0.167 0.142,0.191 0.142,0.094 0.141,-0.025 0.142,0.094 0.142,0.019 0.141,0.039 0.142,-0.009 0.141,0.171 0.142,-0.029 0.142,0.083 0.141,-0.029 0.142,-0.074 0.142,-0.073 0.141,-0.212 0.142,-0.338 0.142,-0.359 0.141,-0.52 0.142,-0.29 0.142,-0.103 0.141,-0.192 0.142,-0.329 0.142,-0.766 0.141,-0.26 0.142,-0.256 0.141,-0.112 0.142,-0.231 0.142,-0.157 0.141,0 0.142,-0.153 0.142,-0.029 0.141,-0.025 0.142,-0.142 0.142,-0.319 0.141,-0.153 0.142,-0.093 0.142,-0.339 0.141,-0.427 0.142,-0.447 0.141,-0.231 0.142,-0.55 0.142,-0.481 0.141,-0.55 0.142,-0.452 0.142,-0.403 0.141,-0.427 0.142,-0.403 0.142,-0.383 0.141,-0.245 0.142,-0.536 0.142,-0.328 0.141,-0.138 0.142,-0.093 0.142,-0.128 0.141,-0.309 0.142,-0.089 0.142,-0.128 0.141,-0.338 0.141,-0.192 0.142,-0.363 0.142,-0.207 0.141,-0.24 0.142,-0.148 0.142,-0.285 0.141,-0.176 0.142,-0.138 0.142,-0.014 0.141,-0.118 0.142,-0.172 0.283,-0.098 0.142,-0.172 0.141,-0.207 0.142,-0.28 0.142,-0.112 0.141,-0.251 0.142,-0.177 0.142,-0.187 0.141,-0.22 0.142,-0.049 0.142,0.107 0.141,-0.034 0.142,0.02 0.142,-0.113 0.141,-0.147 0.142,-0.246 0.141,-0.142 0.142,-0.172 0.142,-0.177 0.141,-0.207 0.142,-0.255 0.142,-0.113 0.141,-0.456 0.142,-0.511 0.142,-0.658 0.141,-0.359 0.142,-0.324 0.142,-0.137 0.141,-0.025 0.142,-0.093 0.142,-0.158 0.141,-0.343 0.142,-0.064 0.141,-0.142 0.142,-0.045 0.142,0.049 0.141,-0.132 0.142,-0.256 0.142,-0.201 0.141,-0.01 0.142,-0.137 0.142,0.029 0.141,-0.044 0.142,-0.005 0.142,0.029 0.141,0.182 0.142,-0.044 0.142,0.187 0.283,0 0.141,0.064 0.142,-0.162 0.142,-0.064 0.141,-0.152 0.142,-0.172 0.142,0.039 0.141,-0.039 0.142,-0.113 0.142,-0.103 0.141,0.009 0.142,-0.078 0.142,-0.079 0.141,0 0.142,0.005 0.142,0.04 0.141,0.098 0.142,-0.02 0.141,0.137 0.142,0.113 0.142,0.098 0.141,-0.038 0.142,-0.133 0.142,-0.27 0.141,0 0.142,-0.133 0.142,0.039 0.141,-0.176 0.142,-0.246 0.142,-0.26 0.141,-0.212 0.142,-0.176 0.142,-0.044 0.141,-0.109 0.142,-0.132 0.141,-0.182 0.142,-0.294 0.142,-0.251 0.141,-0.255 0.142,-0.113 0.142,-0.246 0.141,-0.162 0.142,-0.304 0.142,-0.207 0.141,-0.103 0.142,-0.201 0.142,-0.074 0.141,-0.201 0.142,-0.123 0.142,-0.118 0.141,-0.132 0.142,0.024 0.141,-0.088 0.142,0.113 0.142,0.108 0.141,0.088 0.142,-0.005 0.142,-0.152 0.141,-0.024 0.142,0.063 0.142,-0.073 0.141,-0.039 0.142,-0.192 0.142,-0.25 0.141,-0.231 0.142,-0.197 0.142,-0.187 0.141,0.035 0.141,-0.079 0.142,-0.127 0.142,0.098 0.141,-0.054 0.142,0.049 0.142,-0.216 0.141,-0.02 0.142,-0.128 0.142,-0.068 0.141,-0.123 0.142,-0.044 0.142,0.142 0.141,-0.014 0.142,-0.128 0.141,-0.069 0.142,-0.074 0.142,0.079 0.141,-0.054 0.142,0.059 0.142,-0.147 0.141,-0.31 0.142,-0.196 0.142,-0.201 0.141,-0.035 0.142,-0.03 0.142,-0.142 0.141,-0.039 0.142,-0.113 0.141,-0.177 0.142,-0.098 0.142,-0.103 0.141,-0.197 0.142,-0.127 0.142,0.088 0.141,-0.025 0.142,-0.098 0.142,0.044 0.141,0.069 0.142,0.088 0.142,0.153 0.141,0.113 0.142,0.044 0.142,0.167 0.141,0.191 0.142,0.108 0.142,0.148 0.141,0.078 0.142,0.113 0.141,0.074 0.142,-0.015 0.142,0.167 0.141,0.069 0.142,0.103 0.142,0.221 0.141,0.148 0.142,0.166 0.142,0.123 0.141,0.138 0.142,0.176 0.142,0.197 0.141,-0.064 0.142,0.029 0.141,0.128 0.142,-0.029 0.142,0.27 0.141,0.108 0.142,0.093 0.142,0.089 0.141,0.093 0.142,0.226 0.142,0.216 0.141,0.177 0.142,0.186 0.142,0.187 0.141,0.216 0.142,0.182 0.142,0.27 0.141,0.108 0.142,0.285 0.141,0.152 0.142,0.197 0.142,0.23 0.141,0.266 0.142,0.255 0.142,0.093 0.141,0.285 0.142,0.29 0.142,0.122 0.141,0.197 0.142,0.206 0.142,0.383 0.141,0.177 0.142,0.3 0.142,0.289 0.141,0.256 0.142,0.231 0.141,0.25 0.142,0.265 0.142,0.226 0.141,0.3 0.142,0.162 0.142,0.28 0.141,0.191 0.142,0.182 0.142,0.005 0.141,0.388 0.142,0.295 0.142,0.176 0.141,0.315 0.142,0.363 0.142,0.226 0.141,0.216 0.142,0.069 0.141,0.245 0.142,0.143 0.142,0.206 0.141,0.349 0.142,0.255 0.142,0.226 0.141,0.113 0.142,0.187 0.142,0.328 0.141,0.408 0.142,0.329 0.142,0.315 0.141,0.216 0.142,0.157 0.142,0.181 0.141,0.261 0.142,0.162 0.141,0.295 0.142,0.24 0.141,0.26 0.142,0.384 0.142,0.358 0.141,0.192 0.142,0.378 0.142,0.422 0.141,0.383 0.142,0.329 0.142,0.417 0.141,0.398 0.142,0.354 0.141,0.378 0.142,0.491 0.142,0.638 0.141,0.369 0.142,0.078 0.142,-0.348 0.141,-0.251 0.142,0.103 0.142,0.285 0.141,0.216 0.142,0.467 0.142,0.388 0.141,0.368 0.142,0.418 0.142,0.496 0.141,0.476 0.142,0.574 0.141,0.526 0.142,0.447 0.142,0.427 0.141,0.418 0.142,0.648 0.142,0.55 0.141,0.638 0.142,0.653 0.142,0.615 0.141,0.584 0.142,0.761 0.142,0.663 0.141,0.751 0.142,0.919 0.141,0.83 0.142,0.805 0.142,0.648 0.141,0.565 0.142,0.712 0.142,0.673 0.141,0.54 0.142,0.693 0.142,0.771 0.141,0.619 0.142,0.775 0.142,0.634 0.141,0.741 0.142,0.678 0.142,0.835 0.141,0.703 0.142,0.864 0.142,0.835 0.141,0.795 0.142,0.771 0.141,0.766 0.142,0.501 0.142,0.609 0.141,0.56 0.142,0.462 0.142,0.844 0.141,0.668 0.142,0.756 0.142,0.649 0.141,0.442 0.142,0.457 0.142,0.574 0.141,0.619 0.142,0.565 0.141,0.466 0.142,0.172 0.142,0.103 0.141,0.128 0.142,0.221 0.142,0.211 0.141,0.315 0.142,0.161 0.142,0.359 0.141,0.231 0.142,0.383 0.142,0.344 0.141,0.221 0.142,0.162 0.142,0.176 0.141,-0.088 0.142,-0.118 0.141,0.005 0.142,0.113 0.142,-0.378 0.141,0.069 0.142,-0.084 0.142,-0.127 0.141,-0.074 0.142,0.064 0.142,0.005 0.141,-0.079 0.142,-0.064 0.142,-0.191 0.141,-0.388 0.142,-0.206 0.142,-0.442 0.141,-0.315 0.142,-0.427 0.141,-0.418 0.142,-0.319 0.142,-0.412 0.141,-0.207 0.142,-0.235 0.142,-0.452 0.141,-0.251 0.142,-0.476 0.142,-0.304 0.141,-0.359 0.142,-0.172 0.142,-0.206 0.141,-0.334 0.142,-0.167 0.142,-0.211 0.141,-0.437 0.142,-0.334 0.141,-0.275 0.142,-0.27 0.142,-0.408 0.141,-0.344 0.142,-0.471 0.141,-0.334 0.142,-0.329 0.142,-0.54 0.141,-0.658 0.142,-0.732 0.142,-0.565 0.141,-0.525 0.142,-0.594 0.141,-0.561 0.142,-0.132 0.142,-0.54 0.141,-0.329 0.142,-0.285 0.142,-0.447 0.141,-0.265 0.142,-0.511 0.142,-0.314 0.141,-0.491 0.142,-0.457 0.142,-0.368 0.141,-0.644 0.142,-0.545 0.142,-0.447 0.141,-0.398 0.142,-0.491 0.141,-0.373 0.142,-0.265 0.142,-0.314 0.141,-0.354 0.142,-0.093 0.142,-0.398 0.141,-0.373 0.142,-0.305 0.142,-0.451 0.141,-0.447 0.142,-0.511 0.142,-0.433 0.141,-0.412 0.142,-0.26 0.142,-0.329 0.141,-0.393 0.142,-0.216 0.141,-0.383 0.142,-0.29 0.142,-0.319 0.141,-0.378 0.142,-0.094 0.142,-0.565 0.141,-0.329 0.142,-0.319 0.142,-0.088 0.141,-0.413 0.142,-0.432 0.142,-0.456 0.141,-0.536 0.142,-0.324 0.142,-0.761 0.141,-0.634 0.142,-0.491 0.141,-0.501 0.142,-0.569 0.142,-0.914 0.141,-0.928 0.142,-1.13 0,-74.706 -203.825,0 0,73.469 z"
           style="fill:#ffff00;fill-opacity:1;fill-rule:nonzero;stroke:#000000;stroke-width:0.40599999;stroke-linecap:square;stroke-linejoin:miter;stroke-miterlimit:10;stroke-opacity:1;stroke-dasharray:none"
           id="path4240" />
        <path
           inkscape:connector-curvature="0"
           d="m 349.675,345.66 0.142,-1.199 0.141,-1.119 0.142,-0.83 0.142,-0.766 0.141,-0.894 0.142,-1.115 0.142,-0.53 0.141,-0.781 0.142,-0.747 0.141,-0.515 0.142,-0.501 0.142,-0.462 0.141,-0.555 0.142,-0.496 0.142,-0.545 0.141,-0.53 0.142,-0.295 0.142,-0.339 0.141,-0.486 0.142,-0.501 0.142,-0.633 0.141,-0.629 0.142,-0.54 0.141,-0.575 0.142,-0.55 0.142,-0.673 0.141,-0.756 0.142,-0.928 0.142,-1.09 0.141,-1.233 0.142,-0.967 0.142,-0.884 0.141,-0.791 0.142,-0.732 0.142,-0.589 0.141,-0.531 0.142,-0.584 0.141,-0.515 0.142,-0.487 0.142,-0.348 0.141,-0.418 0.142,-0.599 0.142,-0.516 0.141,-0.56 0.142,-0.363 0.142,-0.59 0.141,-0.584 0.142,-0.545 0.142,-0.579 0.141,-0.54 0.142,-0.58 0.141,-0.889 0.142,-0.83 0.142,-0.663 0.142,-0.796 0.141,-0.638 0.142,-0.81 0.142,-0.619 0.141,-0.668 0.142,-0.692 0.141,-0.619 0.142,-0.668 0.142,-0.776 0.141,-0.511 0.142,-0.373 0.141,-0.521 0.142,-0.329 0.142,-0.304 0.141,-0.236 0.142,-0.28 0.142,-0.363 0.141,-0.334 0.142,-0.393 0.141,-0.31 0.142,-0.368 0.142,-0.383 0.141,-0.255 0.142,-0.172 0.142,-0.211 0.141,-0.31 0.142,-0.373 0.142,-0.403 0.141,-0.314 0.142,-0.206 0.142,-0.29 0.141,-0.324 0.142,-0.157 0.142,-0.339 0.141,-0.182 0.142,-0.231 0.141,-0.358 0.142,-0.098 0.142,-0.241 0.141,-0.182 0.142,-0.299 0.142,-0.035 0.141,-0.152 0.142,-0.059 0.142,-0.24 0.141,-0.103 0.142,-0.167 0.142,-0.202 0.141,-0.294 0.142,-0.128 0.142,-0.295 0.141,-0.255 0.142,-0.285 0.141,-0.236 0.142,-0.157 0.142,-0.177 0.141,-0.167 0.142,-0.245 0.142,-0.315 0.141,-0.225 0.142,-0.236 0.142,-0.305 0.141,-0.206 0.142,-0.29 0.142,-0.27 0.141,-0.172 0.142,-0.181 0.142,-0.325 0.141,-0.216 0.142,-0.206 0.141,-0.167 0.142,-0.231 0.142,-0.245 0.141,-0.157 0.142,-0.064 0.142,-0.187 0.141,-0.177 0.142,-0.103 0.142,-0.191 0.141,-0.172 0.142,-0.054 0.142,-0.093 0.141,-0.153 0.142,-0.176 0.141,-0.055 0.142,-0.088 0.142,-0.113 0.141,-0.118 0.142,-0.123 0.142,-0.098 0.141,-0.083 0.142,-0.128 0.142,-0.147 0.141,-0.172 0.284,-0.295 0.141,-0.211 0.142,-0.27 0.142,-0.172 0.141,-0.241 0.283,-0.442 0.142,-0.181 0.142,-0.079 0.141,-0.182 0.142,-0.162 0.142,-0.201 0.141,-0.137 0.142,-0.084 0.142,-0.069 0.141,-0.122 0.142,-0.138 0.142,-0.236 0.141,-0.123 0.142,-0.162 0.283,-0.245 0.142,-0.241 0.141,-0.186 0.142,-0.182 0.142,-0.118 0.141,-0.088 0.142,-0.167 0.142,-0.094 0.141,-0.162 0.142,-0.142 0.283,-0.305 0.142,-0.137 0.142,-0.147 0.141,-0.118 0.142,-0.049 0.283,-0.226 0.142,-0.054 0.141,-0.069 0.142,-0.079 0.142,-0.147 0.141,-0.098 0.142,-0.049 0.142,-0.123 0.141,-0.103 0.142,-0.03 0.141,-0.049 0.142,-0.019 0.142,-0.104 0.141,-0.088 0.142,-0.054 0.141,-0.108 0.142,-0.034 0.142,-0.045 0.141,-0.039 0.142,-0.083 0.142,-0.05 0.141,-0.167 0.142,-0.132 0.142,-0.044 0.141,-0.108 0.142,-0.074 0.142,-0.069 0.141,-0.01 0.142,-0.019 0.142,-0.005 0.141,-0.049 0.142,-0.03 0.141,-0.024 0.142,-0.059 0.142,-0.025 0.141,-0.054 0.142,-0.039 0.142,-0.064 0.141,-0.015 0.142,-0.063 0.142,-0.045 0.141,-0.059 0.142,-0.024 0.142,0 0.141,-0.025 0.142,-0.034 0.142,-0.049 0.141,-0.025 0.142,0 0.141,0.044 0.142,-0.014 0.142,-0.005 0.141,-0.03 0.142,-0.024 0.142,-0.108 0.141,-0.03 0.142,-0.044 0.425,-0.118 0.142,-0.01 0.141,-0.019 0.142,-0.025 0.142,-0.073 0.141,0 0.142,-0.01 0.141,0.005 0.142,0.034 0.142,0.025 0.141,-0.02 0.142,-0.039 0.142,-0.059 0.141,-0.049 0.142,-0.005 0.142,-0.025 0.141,0.015 0.142,-0.069 0.142,-0.039 0.141,0.064 0.142,-0.103 0.141,-0.02 0.142,-0.005 0.142,-0.044 0.141,-0.069 0.142,-0.054 0.142,-0.044 0.141,-0.005 0.142,-0.03 0.283,-0.088 0.142,0 0.142,0.01 0.141,-0.005 0.142,-0.015 0.142,0.039 0.141,0 0.142,-0.049 0.141,0 0.142,-0.029 0.142,-0.01 0.141,0.025 0.142,0.034 0.142,-0.025 0.141,-0.009 0.142,-0.015 0.142,0.02 0.141,-0.005 0.142,-0.01 0.283,-0.069 0.142,-0.01 0.142,0.015 0.141,-0.025 0.283,-0.019 0.142,0.019 0.142,-0.009 0.141,-0.025 0.142,0.005 0.142,0 0.141,-0.039 0.142,-0.064 0.142,-0.049 0.141,-0.044 0.142,-0.02 0.142,-0.039 0.141,0.009 0.142,0.025 0.142,0.015 0.141,0 0.142,-0.02 0.141,-0.01 0.142,0.049 0.142,-0.014 0.141,0.019 0.142,0.025 0.142,0.005 0.141,-0.005 0.142,0.015 0.142,0.004 0.141,-0.024 0.142,-0.049 0.141,-0.02 0.142,-0.015 0.141,0.01 0.142,-0.015 0.142,-0.009 0.141,-0.005 0.142,0 0.142,-0.005 0.141,0.01 0.142,-0.035 0.142,0 0.141,0.02 0.284,-0.02 0.141,-0.019 0.142,0.019 0.142,0.035 0.141,0.054 0.142,-0.04 0.141,0.005 0.142,-0.019 0.142,-0.025 0.141,-0.034 0.142,0.014 0.142,-0.004 0.141,-0.05 0.142,-0.034 0.142,0.01 0.141,-0.025 0.142,-0.044 0.142,-0.049 0.141,-0.064 0.142,-0.019 0.283,-0.05 0.142,0.005 0.141,-0.034 0.142,-0.01 0.142,-0.015 0.141,0.045 0.142,0.004 0.283,0.03 0.142,-0.01 0.283,-0.029 0.142,0.019 0.142,-0.019 0.141,-0.035 0.142,-0.014 0.142,0.039 0.141,0.019 0.142,0.05 0.141,0.014 0.142,-0.029 0.142,0.02 0.141,0 0.142,0.004 0.142,-0.029 0.141,0.059 0.142,0.015 0.567,0 0.141,0.009 0.142,0.025 0.142,0.039 0.141,0 0.142,0.01 0.141,0.039 0.142,0.074 0.142,0.054 0.141,0.044 0.142,0.049 0.142,0.108 0.141,0.05 0.142,-0.005 0.142,0.073 0.141,0.079 0.142,0.029 0.142,0.064 0.141,0.049 0.142,0.005 0.141,0.064 0.142,0.039 0.142,0.079 0.141,-0.02 0.142,0.02 0.142,0.093 0.141,0.03 0.142,0.083 0.142,0.064 0.141,0.059 0.142,0.049 0.142,0.025 0.141,0.073 0.142,0.04 0.142,0.044 0.141,0.069 0.142,0.034 0.141,0.078 0.142,0.035 0.142,0.128 0.141,0.058 0.284,0.138 0.141,0.049 0.142,0.079 0.142,0.005 0.141,0.078 0.142,0.093 0.142,0.045 0.141,0.118 0.142,0.039 0.142,0.088 0.141,0.03 0.142,0.034 0.141,0.044 0.142,-0.039 0.142,0.054 0.141,-0.044 0.142,0.01 0.142,0.024 0.141,0.054 0.142,0.069 0.142,0.093 0.141,0.162 0.142,0.074 0.141,0.108 0.142,0.079 0.141,0.059 0.142,0.108 0.142,0.127 0.141,0.069 0.142,0.098 0.142,0.074 0.141,0.118 0.142,0.221 0.142,0.157 0.141,0.147 0.142,0.187 0.142,0.113 0.141,0.147 0.142,0.157 0.142,0.153 0.141,0.24 0.142,0.148 0.141,0.117 0.142,0.099 0.142,0.147 0.141,0.123 0.142,0.073 0.142,0.079 0.141,0.029 0.142,0.089 0.142,0.093 0.141,0.098 0.142,0.157 0.142,0.045 0.141,-0.02 0.142,-0.015 0.142,0.094 0.141,-0.035 0.142,0.138 0.141,-0.015 0.142,0.059 0.142,0.039 0.141,0.054 0.142,0.025 0.142,0.162 0.141,0.078 0.142,0.158 0.142,0.068 0.141,0.03 0.142,-0.064 0.142,0.029 0.141,0.054 0.142,-0.024 0.142,0.157 0.141,0.108 0.142,0.03 0.141,0.152 0.142,0.098 0.142,0.162 0.141,0.113 0.142,0.03 0.142,0.147 0.141,0.034 0.142,0.182 0.142,0.118 0.141,0.088 0.142,0.079 0.142,0.123 0.141,0.142 0.142,0.118 0.142,0.177 0.141,0.113 0.142,0.054 0.141,0.157 0.284,0.196 0.141,0.074 0.142,0.231 0.283,0.294 0.142,0.099 0.142,0.093 0.141,0.123 0.142,-0.04 0.142,0.182 0.141,0.054 0.142,0.039 0.141,0.172 0.142,0.108 0.142,0.089 0.141,0.122 0.142,0.261 0.142,0.201 0.141,0.28 0.142,0.133 0.142,0.108 0.141,0.142 0.142,0.123 0.142,0.078 0.283,0.325 0.142,0.073 0.141,0 0.142,0.197 0.142,0.137 0.141,0.172 0.142,0.201 0.141,0.187 0.142,0.005 0.142,0.167 0.141,0.172 0.142,0.118 0.142,-0.005 0.141,0 0.142,0.083 0.142,-0.044 0.283,0.118 0.142,0.172 0.141,0.167 0.142,0.019 0.142,0.045 0.141,0.083 0.142,0.211 0.141,0.084 0.142,0.172 0.142,0.088 0.141,0.054 0.142,0.039 0.142,0.03 0.141,0.093 0.142,0.02 0.142,0.049 0.141,0.015 0.142,0.142 0.141,0.152 0.142,0.074 0.283,0.275 0.142,0.108 0.141,0.093 0.142,0.04 0.142,0.152 0.141,0.324 0.142,0.069 0.142,0.014 0.141,-0.014 0.142,0.078 0.142,0.133 0.141,-0.01 0.142,0.142 0.141,0.01 0.142,0.123 0.142,0.147 0.141,0.064 0.142,0.079 0.142,-0.005 0.141,-0.054 0.142,0.005 0.142,0.034 0.141,0.128 0.142,0.054 0.142,0.137 0.141,0.104 0.142,0.088 0.142,-0.01 0.141,0.138 0.142,-0.03 0.141,0.172 0.142,0.197 0.142,0.117 0.141,0.064 0.142,0.02 0.142,0.024 0.141,0.074 0.142,0.025 0.142,-0.02 0.141,0 0.142,0.039 0.142,0.01 0.141,-0.054 0.142,-0.064 0.142,-0.054 0.141,-0.088 0.142,0.083 0.141,0.069 0.142,0.054 0.142,0.084 0.141,0.098 0.142,0.196 0.142,0.148 0.141,0.108 0.142,0.26 0.142,0.034 0.141,0.138 0.142,0.191 0.142,0.064 0.141,0.152 0.142,-0.029 0.142,0.005 0.141,0.118 0.142,0.039 0.141,-0.02 0.142,0.089 0.142,0.098 0.141,-0.074 0.142,-0.069 0.142,0.069 0.141,0.098 0.142,0.045 0.142,-0.005 0.141,0.162 0.142,0.147 0.142,0.118 0.141,0.177 0.142,0.093 0.141,0.049 0.142,0.01 0.142,0.108 0.141,0.143 0.142,0.132 0.142,0.152 0.141,0.172 0.142,0.074 0.142,0.147 0.141,0.064 0.142,0.098 0.142,0.118 0.141,0.152 0.142,0.197 0.142,0.064 0.141,0.122 0.142,0.103 0.142,0.04 0.141,0.025 0.142,0.063 0.141,0.01 0.142,0.025 0.142,0.108 0.141,0.142 0.142,0.182 0.142,0.069 0.141,0.078 0.142,0.03 0.142,0.127 0.141,0.064 0.142,0.079 0.142,0.167 0.141,0.078 0.142,0.025 0.141,0.201 0.142,0.064 0.142,0.098 0.141,0.113 0.142,-0.024 0.142,0.113 0.141,0.059 0.142,0.019 0.142,-0.01 0.141,0.045 0.142,0.132 0.142,0.069 0.141,0.123 0.142,0.181 0.141,0.241 0.142,0.231 0.141,0.005 0.142,0.039 0.142,0.29 0.141,0.177 0.142,0.039 0.142,0.088 0.141,0.167 0.142,0.074 0.142,0.177 0.141,0.201 0.142,0.118 0.142,0.113 0.283,0.275 0.141,0.285 0.142,0.235 0.142,0.266 0.141,0.25 0.142,0.211 0.142,0.025 0.141,0.083 0.142,0.138 0.142,0.275 0.141,0.216 0.142,0.074 0.142,0.157 0.141,0.142 0.142,0.202 0.142,0.162 0.141,0.255 0.142,0.206 0.141,0.113 0.142,0.152 0.142,0.227 0.141,0.294 0.142,0.182 0.142,0.211 0.141,0.162 0.142,0.187 0.142,0.201 0.141,0.226 0.142,0.132 0.142,0.148 0.141,0.182 0.142,0.152 0.142,0.226 0.141,0.157 0.142,0.187 0.141,0.063 0.142,0.123 0.142,-0.083 0.141,0.216 0.142,0.004 0.142,0.162 0.141,0.148 0.142,-0.088 0.142,0.112 0.141,0.015 0.142,0.201 0.142,0.06 0.141,0.191 0.142,0.236 0.142,0.147 0.141,0.261 0.142,0.274 0.141,0.192 0.142,0.314 0.142,0.241 0.141,0.147 0.284,0.589 0.141,0.511 0.142,0.324 0.142,0.369 0.141,0.397 0.142,0.344 0.142,0.354 0.141,0.305 0.142,0.372 0.142,0.506 0.141,0.437 0.142,0.462 0.141,0.422 0.142,0.374 0.142,0.466 0.141,0.285 0.142,0.442 0.142,0.211 0.141,0.324 0.142,0.482 0.142,0.427 0.141,0.471 0.142,0.354 0.142,0.476 0.141,0.565 0.142,0.359 0.141,0.25 0.142,0.315 0.142,0.446 0.141,0.339 0.142,0.359 0.142,0.393 0.141,0.402 0.142,0.423 0.142,0.446 0.141,0.457 0.142,0.236 0.142,0.653 0.141,0.521 0.142,0.294 0.142,0.58 0.141,0.407 0.142,0.339 0.142,0.31 0.141,0.294 0.142,0.506 0.141,0.683 0.142,0.845 0.142,0.265 0.141,-0.261 0.142,0.192 0.142,0.241 0.141,0.339 0.142,0.358 0.142,0.295 0.141,0.299 0.142,0.462 0.142,0.339 0.141,0.427 0.141,0.54 0.142,0.457 0.142,0.403 0.141,0.432 0.142,0.569 0.142,0.526 0.141,0.447 0.142,0.417 0.142,0.31 0.141,0.142 0.142,0.246 0.142,0.319 0.141,0.368 0.142,0.31 0.141,0.481 0.142,0.349 0.142,0.373 0.141,0.118 0.142,0.166 0.142,0.315 0.141,0.206 0.142,0.182 0.142,0.437 0.141,0.236 0.142,0.299 0.142,0.29 0.141,0.393 0.142,0.172 0.142,0.451 0.141,0.374 0.142,0.378 0.141,0.314 0.142,0.143 0.142,0.432 0.141,0.334 0.142,-0.059 0.142,-0.02 0.141,0.049 0.142,0.153 0.142,0.166 0.141,0.099 0.142,0.123 0.142,0.127 0.141,0.152 0.142,0.295 0.142,0.192 0.141,0.392 0.142,0.619 0.141,-0.059 0.142,-0.623 0.142,-0.403 0.141,-0.133 0.142,0.118 0.142,0.108 0.141,0.241 0.142,0.206 0.142,0.216 0.141,0.324 0.142,0.349 0.142,0.329 0.141,0.368 0.142,0.192 0.142,0.339 0.141,0.216 0.142,0.172 0.141,0.172 0.142,0.319 0.142,0.241 0.141,-0.3 0.142,0.064 0.142,-0.025 0.141,-0.083 0.142,0.088 0.142,0.123 0.141,0.167 0.142,0.191 0.142,0.094 0.141,-0.025 0.142,0.094 0.142,0.019 0.141,0.039 0.142,-0.009 0.141,0.171 0.142,-0.029 0.142,0.083 0.141,-0.029 0.142,-0.074 0.142,-0.073 0.141,-0.212 0.142,-0.338 0.142,-0.359 0.141,-0.52 0.142,-0.29 0.142,-0.103 0.141,-0.192 0.142,-0.329 0.142,-0.766 0.141,-0.26 0.142,-0.256 0.141,-0.112 0.142,-0.231 0.142,-0.157 0.141,0 0.142,-0.153 0.142,-0.029 0.141,-0.025 0.142,-0.142 0.142,-0.319 0.141,-0.153 0.142,-0.093 0.142,-0.339 0.141,-0.427 0.142,-0.447 0.141,-0.231 0.142,-0.55 0.142,-0.481 0.141,-0.55 0.142,-0.452 0.142,-0.403 0.141,-0.427 0.142,-0.403 0.142,-0.383 0.141,-0.245 0.142,-0.536 0.142,-0.328 0.141,-0.138 0.142,-0.093 0.142,-0.128 0.141,-0.309 0.142,-0.089 0.142,-0.128 0.141,-0.338 0.141,-0.192 0.142,-0.363 0.142,-0.207 0.141,-0.24 0.142,-0.148 0.142,-0.285 0.141,-0.176 0.142,-0.138 0.142,-0.014 0.141,-0.118 0.142,-0.172 0.283,-0.098 0.142,-0.172 0.141,-0.207 0.142,-0.28 0.142,-0.112 0.141,-0.251 0.142,-0.177 0.142,-0.187 0.141,-0.22 0.142,-0.049 0.142,0.107 0.141,-0.034 0.142,0.02 0.142,-0.113 0.141,-0.147 0.142,-0.246 0.141,-0.142 0.142,-0.172 0.142,-0.177 0.141,-0.207 0.142,-0.255 0.142,-0.113 0.141,-0.456 0.142,-0.511 0.142,-0.658 0.141,-0.359 0.142,-0.324 0.142,-0.137 0.141,-0.025 0.142,-0.093 0.142,-0.158 0.141,-0.343 0.142,-0.064 0.141,-0.142 0.142,-0.045 0.142,0.049 0.141,-0.132 0.142,-0.256 0.142,-0.201 0.141,-0.01 0.142,-0.137 0.142,0.029 0.141,-0.044 0.142,-0.005 0.142,0.029 0.141,0.182 0.142,-0.044 0.142,0.187 0.283,0 0.141,0.064 0.142,-0.162 0.142,-0.064 0.141,-0.152 0.142,-0.172 0.142,0.039 0.141,-0.039 0.142,-0.113 0.142,-0.103 0.141,0.009 0.142,-0.078 0.142,-0.079 0.141,0 0.142,0.005 0.142,0.04 0.141,0.098 0.142,-0.02 0.141,0.137 0.142,0.113 0.142,0.098 0.141,-0.038 0.142,-0.133 0.142,-0.27 0.141,0 0.142,-0.133 0.142,0.039 0.141,-0.176 0.142,-0.246 0.142,-0.26 0.141,-0.212 0.142,-0.176 0.142,-0.044 0.141,-0.109 0.142,-0.132 0.141,-0.182 0.142,-0.294 0.142,-0.251 0.141,-0.255 0.142,-0.113 0.142,-0.246 0.141,-0.162 0.142,-0.304 0.142,-0.207 0.141,-0.103 0.142,-0.201 0.142,-0.074 0.141,-0.201 0.142,-0.123 0.142,-0.118 0.141,-0.132 0.142,0.024 0.141,-0.088 0.142,0.113 0.142,0.108 0.141,0.088 0.142,-0.005 0.142,-0.152 0.141,-0.024 0.142,0.063 0.142,-0.073 0.141,-0.039 0.142,-0.192 0.142,-0.25 0.141,-0.231 0.142,-0.197 0.142,-0.187 0.141,0.035 0.141,-0.079 0.142,-0.127 0.142,0.098 0.141,-0.054 0.142,0.049 0.142,-0.216 0.141,-0.02 0.142,-0.128 0.142,-0.068 0.141,-0.123 0.142,-0.044 0.142,0.142 0.141,-0.014 0.142,-0.128 0.141,-0.069 0.142,-0.074 0.142,0.079 0.141,-0.054 0.142,0.059 0.142,-0.147 0.141,-0.31 0.142,-0.196 0.142,-0.201 0.141,-0.035 0.142,-0.03 0.142,-0.142 0.141,-0.039 0.142,-0.113 0.141,-0.177 0.142,-0.098 0.142,-0.103 0.141,-0.197 0.142,-0.127 0.142,0.088 0.141,-0.025 0.142,-0.098 0.142,0.044 0.141,0.069 0.142,0.088 0.142,0.153 0.141,0.113 0.142,0.044 0.142,0.167 0.141,0.191 0.142,0.108 0.142,0.148 0.141,0.078 0.142,0.113 0.141,0.074 0.142,-0.015 0.142,0.167 0.141,0.069 0.142,0.103 0.142,0.221 0.141,0.148 0.142,0.166 0.142,0.123 0.141,0.138 0.142,0.176 0.142,0.197 0.141,-0.064 0.142,0.029 0.141,0.128 0.142,-0.029 0.142,0.27 0.141,0.108 0.142,0.093 0.142,0.089 0.141,0.093 0.142,0.226 0.142,0.216 0.141,0.177 0.142,0.186 0.142,0.187 0.141,0.216 0.142,0.182 0.142,0.27 0.141,0.108 0.142,0.285 0.141,0.152 0.142,0.197 0.142,0.23 0.141,0.266 0.142,0.255 0.142,0.093 0.141,0.285 0.142,0.29 0.142,0.122 0.141,0.197 0.142,0.206 0.142,0.383 0.141,0.177 0.142,0.3 0.142,0.289 0.141,0.256 0.142,0.231 0.141,0.25 0.142,0.265 0.142,0.226 0.141,0.3 0.142,0.162 0.142,0.28 0.141,0.191 0.142,0.182 0.142,0.005 0.141,0.388 0.142,0.295 0.142,0.176 0.141,0.315 0.142,0.363 0.142,0.226 0.141,0.216 0.142,0.069 0.141,0.245 0.142,0.143 0.142,0.206 0.141,0.349 0.142,0.255 0.142,0.226 0.141,0.113 0.142,0.187 0.142,0.328 0.141,0.408 0.142,0.329 0.142,0.315 0.141,0.216 0.142,0.157 0.142,0.181 0.141,0.261 0.142,0.162 0.141,0.295 0.142,0.24 0.141,0.26 0.142,0.384 0.142,0.358 0.141,0.192 0.142,0.378 0.142,0.422 0.141,0.383 0.142,0.329 0.142,0.417 0.141,0.398 0.142,0.354 0.141,0.378 0.142,0.491 0.142,0.638 0.141,0.369 0.142,0.078 0.142,-0.348 0.141,-0.251 0.142,0.103 0.142,0.285 0.141,0.216 0.142,0.467 0.142,0.388 0.141,0.368 0.142,0.418 0.142,0.496 0.141,0.476 0.142,0.574 0.141,0.526 0.142,0.447 0.142,0.427 0.141,0.418 0.142,0.648 0.142,0.55 0.141,0.638 0.142,0.653 0.142,0.615 0.141,0.584 0.142,0.761 0.142,0.663 0.141,0.751 0.142,0.919 0.141,0.83 0.142,0.805 0.142,0.648 0.141,0.565 0.142,0.712 0.142,0.673 0.141,0.54 0.142,0.693 0.142,0.771 0.141,0.619 0.142,0.775 0.142,0.634 0.141,0.741 0.142,0.678 0.142,0.835 0.141,0.703 0.142,0.864 0.142,0.835 0.141,0.795 0.142,0.771 0.141,0.766 0.142,0.501 0.142,0.609 0.141,0.56 0.142,0.462 0.142,0.844 0.141,0.668 0.142,0.756 0.142,0.649 0.141,0.442 0.142,0.457 0.142,0.574 0.141,0.619 0.142,0.565 0.141,0.466 0.142,0.172 0.142,0.103 0.141,0.128 0.142,0.221 0.142,0.211 0.141,0.315 0.142,0.161 0.142,0.359 0.141,0.231 0.142,0.383 0.142,0.344 0.141,0.221 0.142,0.162 0.142,0.176 0.141,-0.088 0.142,-0.118 0.141,0.005 0.142,0.113 0.142,-0.378 0.141,0.069 0.142,-0.084 0.142,-0.127 0.141,-0.074 0.142,0.064 0.142,0.005 0.141,-0.079 0.142,-0.064 0.142,-0.191 0.141,-0.388 0.142,-0.206 0.142,-0.442 0.141,-0.315 0.142,-0.427 0.141,-0.418 0.142,-0.319 0.142,-0.412 0.141,-0.207 0.142,-0.235 0.142,-0.452 0.141,-0.251 0.142,-0.476 0.142,-0.304 0.141,-0.359 0.142,-0.172 0.142,-0.206 0.141,-0.334 0.142,-0.167 0.142,-0.211 0.141,-0.437 0.142,-0.334 0.141,-0.275 0.142,-0.27 0.142,-0.408 0.141,-0.344 0.142,-0.471 0.141,-0.334 0.142,-0.329 0.142,-0.54 0.141,-0.658 0.142,-0.732 0.142,-0.565 0.141,-0.525 0.142,-0.594 0.141,-0.561 0.142,-0.132 0.142,-0.54 0.141,-0.329 0.142,-0.285 0.142,-0.447 0.141,-0.265 0.142,-0.511 0.142,-0.314 0.141,-0.491 0.142,-0.457 0.142,-0.368 0.141,-0.644 0.142,-0.545 0.142,-0.447 0.141,-0.398 0.142,-0.491 0.141,-0.373 0.142,-0.265 0.142,-0.314 0.141,-0.354 0.142,-0.093 0.142,-0.398 0.141,-0.373 0.142,-0.305 0.142,-0.451 0.141,-0.447 0.142,-0.511 0.142,-0.433 0.141,-0.412 0.142,-0.26 0.142,-0.329 0.141,-0.393 0.142,-0.216 0.141,-0.383 0.142,-0.29 0.142,-0.319 0.141,-0.378 0.142,-0.094 0.142,-0.565 0.141,-0.329 0.142,-0.319 0.142,-0.088 0.141,-0.413 0.142,-0.432 0.142,-0.456 0.141,-0.536 0.142,-0.324 0.142,-0.761 0.141,-0.634 0.142,-0.491 0.141,-0.501 0.142,-0.569 0.142,-0.914 0.141,-0.928 0.142,-1.13"
           style="fill:none;stroke:#000000;stroke-width:0.40599999;stroke-linecap:square;stroke-linejoin:miter;stroke-miterlimit:10;stroke-opacity:1;stroke-dasharray:none"
           id="path4242" />
        <path
           inkscape:connector-curvature="0"
           d="m 349.675,313.801 203.825,0"
           style="fill:none;stroke:#a52a2a;stroke-width:0.40599999;stroke-linecap:square;stroke-linejoin:miter;stroke-miterlimit:10;stroke-opacity:1;stroke-dasharray:none"
           id="path4244" />
      </g>
    </g>
    <path
       inkscape:connector-curvature="0"
       d="m 266.45774,598.98509 0,-146.11125"
       style="fill:none;stroke:#000000;stroke-width:0.25375;stroke-linecap:butt;stroke-linejoin:miter;stroke-miterlimit:10;stroke-opacity:1;stroke-dasharray:0.5075, 1.5225;stroke-dashoffset:0"
       id="path4246" />
    <path
       inkscape:connector-curvature="0"
       d="m 266.20399,598.98509 0,-2.03 0,2.03 z m 0,-144.0825 0,-2.02875 0,2.02875 z"
       style="fill:none;stroke:#000000;stroke-width:0.25375;stroke-linecap:butt;stroke-linejoin:miter;stroke-miterlimit:10;stroke-opacity:1;stroke-dasharray:none"
       id="path4248" />
    <g
       transform="matrix(1.25,0,0,-1.25,-181.25976,939.22384)"
       id="g4250">
      <g
         id="g4252"
         clip-path="url(#clipPath4254)">
        <text
           transform="matrix(1,0,0,-1,353.3603,267.0164)"
           id="text4258">
          <tspan
             style="font-size:4.87039995px;font-variant:normal;font-weight:normal;writing-mode:lr-tb;fill:#000000;fill-opacity:1;fill-rule:nonzero;stroke:none;font-family:Arial Black;-inkscape-font-specification:Arial"
             x="0 3.0944774 6.4224992"
             y="0"
             sodipodi:role="line"
             id="tspan4260">1AM</tspan>
        </text>
      </g>
    </g>
    <path
       inkscape:connector-curvature="0"
       d="m 319.57399,598.98509 0,-146.11125"
       style="fill:none;stroke:#000000;stroke-width:0.25375;stroke-linecap:butt;stroke-linejoin:miter;stroke-miterlimit:10;stroke-opacity:1;stroke-dasharray:0.5075, 1.5225;stroke-dashoffset:0"
       id="path4262" />
    <path
       inkscape:connector-curvature="0"
       d="m 319.32024,598.98509 0,-2.03 0,2.03 z m 0,-144.0825 0,-2.02875 0,2.02875 z"
       style="fill:none;stroke:#000000;stroke-width:0.25375;stroke-linecap:butt;stroke-linejoin:miter;stroke-miterlimit:10;stroke-opacity:1;stroke-dasharray:none"
       id="path4264" />
    <g
       transform="matrix(1.25,0,0,-1.25,-181.25976,939.22384)"
       id="g4266">
      <g
         id="g4268"
         clip-path="url(#clipPath4270)">
        <text
           transform="matrix(1,0,0,-1,395.7581,266.9531)"
           id="text4274">
          <tspan
             style="font-size:4.87039995px;font-variant:normal;font-weight:normal;writing-mode:lr-tb;fill:#000000;fill-opacity:1;fill-rule:nonzero;stroke:none;font-family:Arial Black;-inkscape-font-specification:Arial"
             x="0 3.0944774 6.4224992"
             y="0"
             sodipodi:role="line"
             id="tspan4276">6AM</tspan>
        </text>
      </g>
    </g>
    <path
       inkscape:connector-curvature="0"
       d="m 383.31274,598.98509 0,-146.11125"
       style="fill:none;stroke:#000000;stroke-width:0.25375;stroke-linecap:butt;stroke-linejoin:miter;stroke-miterlimit:10;stroke-opacity:1;stroke-dasharray:0.5075, 1.5225;stroke-dashoffset:0"
       id="path4278" />
    <path
       inkscape:connector-curvature="0"
       d="m 383.05899,598.98509 0,-2.03 0,2.03 z m 0,-144.0825 0,-2.02875 0,2.02875 z"
       style="fill:none;stroke:#000000;stroke-width:0.25375;stroke-linecap:butt;stroke-linejoin:miter;stroke-miterlimit:10;stroke-opacity:1;stroke-dasharray:none"
       id="path4280" />
    <g
       transform="matrix(1.25,0,0,-1.25,-181.25976,939.22384)"
       id="g4282">
      <g
         id="g4284"
         clip-path="url(#clipPath4286)">
        <text
           transform="matrix(1,0,0,-1,445.491,266.9531)"
           id="text4290">
          <tspan
             style="font-size:4.87039995px;font-variant:normal;font-weight:normal;writing-mode:lr-tb;fill:#000000;fill-opacity:1;fill-rule:nonzero;stroke:none;font-family:Arial Black;-inkscape-font-specification:Arial"
             x="0 3.0944774 6.1889548 9.1228685"
             y="0"
             sodipodi:role="line"
             id="tspan4292">12PM</tspan>
        </text>
      </g>
    </g>
    <path
       inkscape:connector-curvature="0"
       d="m 447.05274,598.98509 0,-146.11125"
       style="fill:none;stroke:#000000;stroke-width:0.25375;stroke-linecap:butt;stroke-linejoin:miter;stroke-miterlimit:10;stroke-opacity:1;stroke-dasharray:0.5075, 1.5225;stroke-dashoffset:0"
       id="path4294" />
    <path
       inkscape:connector-curvature="0"
       d="m 446.79899,598.98509 0,-2.03 0,2.03 z m 0,-144.0825 0,-2.02875 0,2.02875 z"
       style="fill:none;stroke:#000000;stroke-width:0.25375;stroke-linecap:butt;stroke-linejoin:miter;stroke-miterlimit:10;stroke-opacity:1;stroke-dasharray:none"
       id="path4296" />
    <g
       transform="matrix(1.25,0,0,-1.25,-181.25976,939.22384)"
       id="g4298">
      <g
         id="g4300"
         clip-path="url(#clipPath4302)">
        <text
           transform="matrix(1,0,0,-1,497.938,266.9531)"
           id="text4306">
          <tspan
             style="font-size:4.87039995px;font-variant:normal;font-weight:normal;writing-mode:lr-tb;fill:#000000;fill-opacity:1;fill-rule:nonzero;stroke:none;font-family:Arial Black;-inkscape-font-specification:Arial"
             x="0 3.0944774 6.0283918"
             y="0"
             sodipodi:role="line"
             id="tspan4308">6PM</tspan>
        </text>
      </g>
    </g>
    <path
       inkscape:connector-curvature="0"
       d="m 500.16899,598.98509 0,-146.11125"
       style="fill:none;stroke:#000000;stroke-width:0.25375;stroke-linecap:butt;stroke-linejoin:miter;stroke-miterlimit:10;stroke-opacity:1;stroke-dasharray:0.5075, 1.5225;stroke-dashoffset:0"
       id="path4310" />
    <path
       inkscape:connector-curvature="0"
       d="m 499.91524,598.98509 0,-2.03 0,2.03 z m 0,-144.0825 0,-2.02875 0,2.02875 z"
       style="fill:none;stroke:#000000;stroke-width:0.25375;stroke-linecap:butt;stroke-linejoin:miter;stroke-miterlimit:10;stroke-opacity:1;stroke-dasharray:none"
       id="path4312" />
    <g
       transform="matrix(1.25,0,0,-1.25,-181.25976,939.22384)"
       id="g4314">
      <g
         id="g4316"
         clip-path="url(#clipPath4318)">
        <text
           transform="matrix(1,0,0,-1,538.9758,267.0164)"
           id="text4322">
          <tspan
             style="font-size:4.87039995px;font-variant:normal;font-weight:normal;writing-mode:lr-tb;fill:#000000;fill-opacity:1;fill-rule:nonzero;stroke:none;font-family:Arial Black;-inkscape-font-specification:Arial"
             x="0 3.0944774 6.1889548 9.1228685"
             y="0"
             sodipodi:role="line"
             id="tspan4324">11PM</tspan>
          <tspan
             style="font-size:4.87039995px;font-variant:normal;font-weight:normal;writing-mode:lr-tb;fill:#000000;fill-opacity:1;fill-rule:nonzero;stroke:none;font-family:Arial Black;-inkscape-font-specification:Arial"
             x="-98.343117 -94.596657 -91.61409 -87.184906 -85.277618 -83.925003 -79.185982"
             y="5.8639617"
             sodipodi:role="line"
             id="tspan4326">Daytime</tspan>
          <tspan
             style="font-size:4.87039995px;font-variant:normal;font-weight:normal;writing-mode:lr-tb;fill:#000000;fill-opacity:1;fill-rule:nonzero;stroke:none;font-family:Arial Black;-inkscape-font-specification:Arial"
             x="-193.37923"
             y="-3.4044096"
             id="tspan4328">0</tspan>
        </text>
      </g>
    </g>
    <g
       transform="matrix(1.25,0,0,-1.25,-181.25976,939.22384)"
       id="g4330">
      <g
         id="g4332"
         clip-path="url(#clipPath4334)">
        <path
           inkscape:connector-curvature="0"
           d="m 349.675,301.413 203.825,0"
           style="fill:none;stroke:#000000;stroke-width:0.20299999;stroke-linecap:butt;stroke-linejoin:miter;stroke-miterlimit:10;stroke-opacity:1;stroke-dasharray:0.406, 1.218;stroke-dashoffset:0"
           id="path4338" />
      </g>
    </g>
    <path
       inkscape:connector-curvature="0"
       d="m 255.83399,562.20384 2.02875,0 -2.02875,0 z m 252.7525,0 2.02875,0 -2.02875,0 z"
       style="fill:none;stroke:#000000;stroke-width:0.25375;stroke-linecap:butt;stroke-linejoin:miter;stroke-miterlimit:10;stroke-opacity:1;stroke-dasharray:none"
       id="path4340" />
    <g
       transform="matrix(1.25,0,0,-1.25,-181.25976,939.22384)"
       id="g4342">
      <g
         id="g4344"
         clip-path="url(#clipPath4346)">
        <text
           transform="matrix(1,0,0,-1,345.7495,299.6726)"
           id="text4350">
          <tspan
             style="font-size:4.87039995px;font-variant:normal;font-weight:normal;writing-mode:lr-tb;fill:#000000;fill-opacity:1;fill-rule:nonzero;stroke:none;font-family:Arial Black;-inkscape-font-specification:Arial"
             x="0"
             y="0"
             id="tspan4352">5</tspan>
        </text>
      </g>
    </g>
    <g
       transform="matrix(1.25,0,0,-1.25,-181.25976,939.22384)"
       id="g4354">
      <g
         id="g4356"
         clip-path="url(#clipPath4358)">
        <path
           inkscape:connector-curvature="0"
           d="m 349.675,330.636 203.825,0"
           style="fill:none;stroke:#000000;stroke-width:0.20299999;stroke-linecap:butt;stroke-linejoin:miter;stroke-miterlimit:10;stroke-opacity:1;stroke-dasharray:0.406, 1.218;stroke-dashoffset:0"
           id="path4362" />
      </g>
    </g>
    <path
       inkscape:connector-curvature="0"
       d="m 255.83399,525.67509 2.02875,0 -2.02875,0 z m 252.7525,0 2.02875,0 -2.02875,0 z"
       style="fill:none;stroke:#000000;stroke-width:0.25375;stroke-linecap:butt;stroke-linejoin:miter;stroke-miterlimit:10;stroke-opacity:1;stroke-dasharray:none"
       id="path4364" />
    <g
       transform="matrix(1.25,0,0,-1.25,-181.25976,939.22384)"
       id="g4366">
      <g
         id="g4368"
         clip-path="url(#clipPath4370)">
        <text
           transform="matrix(1,0,0,-1,342.7055,328.8632)"
           id="text4374">
          <tspan
             style="font-size:4.87039995px;font-variant:normal;font-weight:normal;writing-mode:lr-tb;fill:#000000;fill-opacity:1;fill-rule:nonzero;stroke:none;font-family:Arial Black;-inkscape-font-specification:Arial"
             x="0 3.0944774"
             y="0"
             sodipodi:role="line"
             id="tspan4376">10</tspan>
        </text>
      </g>
    </g>
    <g
       transform="matrix(1.25,0,0,-1.25,-181.25976,939.22384)"
       id="g4378">
      <g
         id="g4380"
         clip-path="url(#clipPath4382)">
        <path
           inkscape:connector-curvature="0"
           d="m 349.675,359.858 203.825,0"
           style="fill:none;stroke:#000000;stroke-width:0.20299999;stroke-linecap:butt;stroke-linejoin:miter;stroke-miterlimit:10;stroke-opacity:1;stroke-dasharray:0.406, 1.218;stroke-dashoffset:0"
           id="path4386" />
      </g>
    </g>
    <path
       inkscape:connector-curvature="0"
       d="m 255.83399,489.14759 2.02875,0 -2.02875,0 z m 252.7525,0 2.02875,0 -2.02875,0 z"
       style="fill:none;stroke:#000000;stroke-width:0.25375;stroke-linecap:butt;stroke-linejoin:miter;stroke-miterlimit:10;stroke-opacity:1;stroke-dasharray:none"
       id="path4388" />
    <g
       transform="matrix(1.25,0,0,-1.25,-181.25976,939.22384)"
       id="g4390">
      <g
         id="g4392"
         clip-path="url(#clipPath4394)">
        <text
           transform="matrix(1,0,0,-1,342.807,358.1171)"
           id="text4398">
          <tspan
             style="font-size:4.87039995px;font-variant:normal;font-weight:normal;writing-mode:lr-tb;fill:#000000;fill-opacity:1;fill-rule:nonzero;stroke:none;font-family:Arial Black;-inkscape-font-specification:Arial"
             x="0 3.0944774"
             y="0"
             sodipodi:role="line"
             id="tspan4400">15</tspan>
          <tspan
             style="font-size:4.87039995px;font-variant:normal;font-weight:normal;writing-mode:lr-tb;fill:#000000;fill-opacity:1;fill-rule:nonzero;stroke:none;font-family:Arial Black;-inkscape-font-specification:Arial"
             x="-0.27761281 2.8168645"
             y="-29.188307"
             sodipodi:role="line"
             id="tspan4402">20</tspan>
        </text>
        <text
           transform="matrix(0,1,1,0,339.8584,319.0335)"
           id="text4404">
          <tspan
             style="font-size:4.87039995px;font-variant:normal;font-weight:normal;writing-mode:lr-tb;fill:#000000;fill-opacity:1;fill-rule:nonzero;stroke:none;font-family:Arial Black;-inkscape-font-specification:Arial"
             x="0 3.5615678 6.096509 9.08881 11.088543 15.172272 15.172272 15.172272 21.692081"
             y="0"
             sodipodi:role="line"
             id="tspan4406">Users(\%)</tspan>
        </text>
        <rect
           style="fill:none;stroke:#ffffff;stroke-width:0.00800000000000000;stroke-miterlimit:4;stroke-opacity:1;stroke-dasharray:none;stroke-dashoffset:0"
           id="rect5067"
           width="221.73169"
           height="134.58884"
           x="334.14197"
           y="-392.35519"
           transform="scale(1,-1)" />
      </g>
    </g>
    <path
       inkscape:connector-curvature="0"
       d="m 255.83399,598.98509 254.78125,0 0,-146.11125 -254.78125,0 0,146.11125 z"
       style="fill:none;stroke:#000000;stroke-width:0.50749999;stroke-linecap:square;stroke-linejoin:miter;stroke-miterlimit:10;stroke-opacity:1;stroke-dasharray:none"
       id="path4408" />
    <g
       transform="matrix(1.25,0,0,-1.25,-181.25976,939.22384)"
       id="g4410">
      <g
         id="g4412"
         clip-path="url(#clipPath4414)">
        <text
           transform="matrix(1,0,0,-1,420.4967,315.2858)"
           id="text4418">
          <tspan
             style="font-size:4.87039995px;font-variant:normal;font-weight:normal;writing-mode:lr-tb;fill:#000000;fill-opacity:1;fill-rule:nonzero;stroke:none;font-family:Arial Black;-inkscape-font-specification:Arial"
             x="0 3.3280218 6.2084155 9.200716 11.200449 14.183019 17.272631"
             y="0"
             sodipodi:role="line"
             id="tspan4420">Average</tspan>
        </text>
      </g>
    </g>
  </g>
</svg>
